HIERARCHY
ROOT Hips
{
	OFFSET 0.000000 0.000000 0.000000
	CHANNELS 6 Xposition Yposition Zposition Zrotation Yrotation Xrotation 
	JOINT LHipJoint
	{
		OFFSET 0.000000 0.000000 0.000000
		CHANNELS 3 Zrotation Yrotation Xrotation
		JOINT LeftUpLeg
		{
			OFFSET 1.363060 -1.794630 0.839290
			CHANNELS 3 Zrotation Yrotation Xrotation
			JOINT LeftLeg
			{
				OFFSET 2.448110 -6.726130 0.000000
				CHANNELS 3 Zrotation Yrotation Xrotation
				JOINT LeftFoot
				{
					OFFSET 2.562200 -7.039590 0.000000
					CHANNELS 3 Zrotation Yrotation Xrotation
					JOINT LeftToeBase
					{
						OFFSET 0.157640 -0.433110 2.322550
						CHANNELS 3 Zrotation Yrotation Xrotation
						End Site
						{
							OFFSET 0.000000 0.000000 0.000000
						}
					}
				}
			}
		}
	}
	JOINT RHipJoint
	{
		OFFSET 0.000000 0.000000 0.000000
		CHANNELS 3 Zrotation Yrotation Xrotation
		JOINT RightUpLeg
		{
			OFFSET -1.305520 -1.794630 0.839290
			CHANNELS 3 Zrotation Yrotation Xrotation
			JOINT RightLeg
			{
				OFFSET -2.542530 -6.985550 0.000000
				CHANNELS 3 Zrotation Yrotation Xrotation
				JOINT RightFoot
				{
					OFFSET -2.568260 -7.056230 0.000000
					CHANNELS 3 Zrotation Yrotation Xrotation
					JOINT RightToeBase
					{
						OFFSET -0.164730 -0.452590 2.363150
						CHANNELS 3 Zrotation Yrotation Xrotation
						End Site
						{
							OFFSET 0.000000 0.000000 0.000000
						}
					}
				}
			}
		}
	}
	JOINT LowerBack
	{
		OFFSET 0.000000 0.000000 0.000000
		CHANNELS 3 Zrotation Yrotation Xrotation
		JOINT Spine
		{
			OFFSET 0.028270 2.035590 -0.193380
			CHANNELS 3 Zrotation Yrotation Xrotation
			JOINT Spine1
			{
				OFFSET 0.056720 2.048850 -0.042750
				CHANNELS 3 Zrotation Yrotation Xrotation
				JOINT Neck
				{
					OFFSET 0.000000 0.000000 0.000000
					CHANNELS 3 Zrotation Yrotation Xrotation
					JOINT Neck1
					{
						OFFSET -0.054170 1.746240 0.172020
						CHANNELS 3 Zrotation Yrotation Xrotation
						JOINT Head
						{
							OFFSET 0.104070 1.761360 -0.123970
							CHANNELS 3 Zrotation Yrotation Xrotation
							End Site
							{
								OFFSET 0.000000 0.000000 0.000000
							}
						}
					}
				}
				JOINT LeftShoulder
				{
					OFFSET 0.000000 0.000000 0.000000
					CHANNELS 3 Zrotation Yrotation Xrotation
					JOINT LeftArm
					{
						OFFSET 3.362410 1.200890 -0.311210
						CHANNELS 3 Zrotation Yrotation Xrotation
						JOINT LeftForeArm
						{
							OFFSET 4.983000 -0.000000 -0.000000
							CHANNELS 3 Zrotation Yrotation Xrotation
							JOINT LeftHand
							{
								OFFSET 3.483560 -0.000000 -0.000000
								CHANNELS 3 Zrotation Yrotation Xrotation
								JOINT LeftFingerBase
								{
									OFFSET 0.000000 0.000000 0.000000
									CHANNELS 3 Zrotation Yrotation Xrotation
									JOINT LeftHandIndex1
									{
										OFFSET 0.715260 -0.000000 -0.000000
										CHANNELS 3 Zrotation Yrotation Xrotation
										End Site
										{
											OFFSET 0.000000 0.000000 0.000000
										}
									}
								}
								JOINT LThumb
								{
									OFFSET 0.000000 0.000000 0.000000
									CHANNELS 3 Zrotation Yrotation Xrotation
									End Site
									{
										OFFSET 0.000000 0.000000 0.000000
									}
								}
							}
						}
					}
				}
				JOINT RightShoulder
				{
					OFFSET 0.000000 0.000000 0.000000
					CHANNELS 3 Zrotation Yrotation Xrotation
					JOINT RightArm
					{
						OFFSET -3.136600 1.374050 -0.404650
						CHANNELS 3 Zrotation Yrotation Xrotation
						JOINT RightForeArm
						{
							OFFSET -5.241900 -0.000000 -0.000000
							CHANNELS 3 Zrotation Yrotation Xrotation
							JOINT RightHand
							{
								OFFSET -3.444170 -0.000000 -0.000000
								CHANNELS 3 Zrotation Yrotation Xrotation
								JOINT RightFingerBase
								{
									OFFSET 0.000000 0.000000 0.000000
									CHANNELS 3 Zrotation Yrotation Xrotation
									JOINT RightHandIndex1
									{
										OFFSET -0.622530 -0.000000 -0.000000
										CHANNELS 3 Zrotation Yrotation Xrotation
										End Site
										{
											OFFSET 0.000000 0.000000 0.000000
										}
									}
								}
								JOINT RThumb
								{
									OFFSET 0.000000 0.000000 0.000000
									CHANNELS 3 Zrotation Yrotation Xrotation
									End Site
									{
										OFFSET 0.000000 0.000000 0.000000
									}
								}
							}
						}
					}
				}
			}
		}
	}
}
MOTION
Frames: 12
Frame Time: 0.033333
4.611907 16.748859 -27.276810 83.154242 -28.209819 -25.509427 -108.607309 -45.437505 64.405183 8.841220 12.953917 -45.568533 -89.888730 54.929396 -71.618000 -4.542333 5.096835 -1.341436 -1.213957 -0.259528 -78.369679 34.805708 -13.984810 -112.227073 -162.018814 -87.543851 126.638162 117.586106 -28.541267 -102.539757 6.793345 -1.817213 -12.513168 2.755542 -0.630707 -29.946092 -76.641428 73.760467 9.859782 -172.037638 77.490748 -172.595288 152.794518 68.193898 148.729615 -17.801752 -9.016562 9.838138 22.842530 10.196328 -1.301622 0.394833 -0.230963 0.300625 75.114899 55.977297 -28.709556 99.629040 79.298459 39.747574 -64.544754 46.843299 -115.302899 -1.205123 5.173353 88.571593 17.093231 0.723562 7.244628 -0.408016 -0.396310 0.397495 0.463590 0.371607 -0.392851 53.187508 67.836633 76.044109 46.549851 5.031731 -178.380680 10.805990 -52.592088 37.799648 14.496064 -0.812864 -17.990064 -1.986809 -22.511767 179.185872 -0.476455 0.290923 -0.397412 -0.307735 -0.574312 -0.330334 
4.457268 16.864180 -26.687843 82.399885 -27.084946 -24.332664 -110.189869 -47.953257 67.061728 5.874030 14.246801 -46.047168 -85.127509 58.064548 -63.509363 -2.368441 10.384361 5.664962 0.135307 0.204558 -77.869832 32.890344 -12.669283 -112.891543 -162.865828 -85.832159 125.329579 121.701364 -29.468208 -98.382361 8.804378 4.063798 -7.986381 3.591320 -0.771020 -30.937477 -73.226560 74.043908 13.300354 -172.799766 76.978747 -174.359752 148.109517 68.368508 144.850023 -18.421004 -6.004610 11.061893 22.320112 5.117724 1.535428 0.400797 -0.511893 0.410076 77.647193 54.650779 -25.506260 112.466325 76.229486 53.768414 -56.723552 48.428097 -108.025315 -2.570677 2.094942 79.413629 16.424960 -0.602876 -2.519724 -0.436556 -0.206625 0.397570 0.397577 0.353386 -0.332966 51.326333 69.316709 74.024183 46.120547 7.458811 178.800814 2.296805 -52.276634 41.663736 12.992702 -4.207575 -14.458968 -21.362675 -50.611889 -163.009240 -0.292507 0.445459 -0.395959 -0.548347 -0.314968 -0.379733 
4.279159 16.988617 -26.124699 80.935534 -26.702349 -23.746595 -108.192224 -50.835421 65.314456 5.091379 15.931461 -42.663223 -86.156189 58.567494 -55.739789 3.054024 11.484581 8.593486 1.551127 0.670833 -74.309806 31.830718 -11.930777 -113.285066 -164.077821 -83.428134 124.376511 124.517226 -30.676667 -97.149007 10.825930 8.333812 -8.410946 3.901753 -0.793640 -31.089043 -73.671932 76.746092 13.009477 -168.431923 76.944769 -170.868263 148.264821 69.485016 144.138308 -18.620820 3.677571 13.748342 19.605242 1.912521 1.908790 0.422917 -0.272090 0.317691 73.361424 52.618557 -28.382694 125.976507 72.821176 64.708660 -55.804331 46.300653 -101.957253 2.536159 5.071229 76.909945 12.202882 0.187593 -4.892819 -0.581140 -0.341491 0.307238 0.232329 0.368373 -0.347779 54.690029 69.083154 78.465172 45.930579 11.019164 175.480056 -0.494352 -51.224284 40.301854 10.119744 -4.277703 -14.245539 -34.933833 -70.625113 -130.930675 -0.544914 0.484012 -0.430686 -0.355711 -0.438861 -0.353741 
4.101165 17.103043 -25.590736 80.652403 -26.005046 -23.920695 -104.464169 -52.084975 61.558166 6.054163 17.073776 -41.594715 -91.453043 62.104924 -49.792352 10.064250 13.545711 6.631659 2.273192 0.775699 -66.622305 30.898882 -10.274157 -113.986255 -169.108501 -83.140615 126.517630 123.972086 -32.231673 -97.328605 4.877495 8.535631 -9.483922 4.096963 -0.857837 -29.437474 -67.722582 76.686765 19.027639 -167.860871 76.399321 -169.326795 146.139954 70.207406 140.671955 -18.595931 8.235030 15.946112 21.336574 1.236130 1.418020 0.355048 -0.326174 0.348612 72.205881 50.509224 -27.421888 134.243524 70.131650 70.181417 -52.675477 44.933498 -95.755560 1.393613 1.405630 75.501268 1.690685 5.141250 -7.087841 -0.168447 -0.344961 0.344487 0.528598 0.320969 -0.391688 63.321821 68.741791 86.808197 44.854140 13.330599 173.950916 -4.168348 -52.859767 44.050668 10.469266 -1.719885 -12.254349 -50.205069 -67.922980 -101.519288 -0.292459 0.479275 -0.412941 -0.465436 -0.258812 -0.357449 
3.935486 17.202600 -25.089479 80.928745 -27.198074 -24.856260 -101.922606 -52.089435 57.685214 7.894213 18.706359 -39.452875 -100.379979 64.208889 -50.067790 8.215670 13.437245 -0.589866 2.652986 0.658819 -56.815418 31.162381 -7.110894 -113.771587 -169.153504 -83.838140 123.677895 124.150107 -32.260589 -97.224878 -1.971295 3.998754 -15.675188 3.702258 -0.861056 -24.901739 -65.507772 78.044133 20.031768 -168.535415 76.921073 -169.338701 147.423460 69.845862 140.220667 -17.759299 12.167541 16.451934 22.982552 -0.257193 -1.124627 0.322681 -0.281442 0.302835 65.901254 50.179144 -31.152792 135.478326 67.791221 68.682313 -52.005177 45.138195 -94.255412 -4.607559 7.193189 75.461531 -10.535201 6.901382 -7.417824 -0.350748 -0.427982 0.362830 0.383503 0.366096 -0.415037 69.830569 67.946113 94.080834 44.249846 16.521980 171.597231 -7.644472 -53.801868 49.586469 10.077124 0.323926 -8.667177 -8.130288 -52.600830 -141.366243 -0.447200 0.243577 -0.303693 -0.261452 -0.340862 -0.328166 
3.771840 17.289322 -24.620636 81.936946 -28.290591 -26.394766 -101.653661 -51.572580 56.274405 10.355120 20.221096 -38.786882 -108.785195 64.983230 -55.112755 6.564605 12.932001 -4.658327 2.367068 0.307288 -48.434529 31.882782 -6.000983 -113.806413 -168.820502 -85.331888 122.220509 123.792737 -32.629368 -98.530042 -9.474446 0.321512 -21.582058 3.408649 -0.702422 -19.492102 -63.999725 78.197055 21.073303 -171.675405 76.953676 -171.939856 144.503184 70.359330 136.047514 -18.485954 15.168304 17.517286 26.459784 2.569340 -0.194457 0.365685 -0.320076 0.344476 64.065229 49.711002 -30.987871 134.039824 64.105405 66.527036 -46.810424 46.859233 -92.424335 -12.053531 12.754427 74.650854 -22.774724 4.499425 5.797528 -0.314977 -0.308411 0.334642 0.365098 0.322678 -0.351973 79.388635 67.071897 103.456930 42.643177 20.081116 169.666553 -14.440601 -54.520400 59.395453 8.996619 2.818581 3.283631 11.025908 -25.817101 -162.312930 -0.396472 0.463570 -0.371417 -0.424392 -0.288022 -0.384993 
3.604323 17.360489 -24.170683 82.789842 -29.431687 -27.192017 -101.361788 -50.800585 56.856301 13.979442 21.577166 -40.664633 -112.307679 65.583775 -57.834900 10.251623 12.038259 -6.452243 2.551513 0.074557 -39.344539 32.720831 -5.536419 -114.113780 -166.276505 -87.028688 118.633538 124.760923 -32.705977 -99.299572 -13.936375 -1.314257 -26.584682 3.381849 -0.769928 -14.893533 -66.017404 78.323113 18.696486 -171.754836 77.116736 -172.080922 144.027147 69.975631 134.367473 -24.651417 17.131743 18.551953 31.621050 -1.285065 -4.207413 0.383803 -0.384479 0.434307 61.447243 50.516074 -31.776048 133.177460 62.294744 67.429380 -39.927099 45.630002 -88.102609 -20.002955 15.440964 76.874502 -36.349264 1.735655 4.721071 -0.377944 -0.407325 0.385697 0.306152 0.337091 -0.335168 87.143293 66.609505 111.616945 40.976399 25.883016 165.680560 -22.030791 -54.218940 68.604295 9.077391 7.066687 5.725112 8.019716 -0.482326 -150.542822 -0.389250 0.383441 -0.420970 -0.367596 -0.358023 -0.313760 
3.443361 17.409586 -23.721451 83.807457 -30.213972 -28.419137 -99.688839 -49.810984 56.679761 16.638967 22.958669 -42.737299 -114.794581 64.027497 -61.618592 15.249401 14.944166 -8.672842 2.479387 -0.126556 -33.634890 33.582109 -7.092402 -114.008916 129.148807 -88.633905 -177.059176 123.069738 -32.651855 -101.144575 -17.932569 -2.169442 -28.753439 3.599693 -0.923232 -11.832535 -68.394828 78.934821 17.730316 -162.697118 77.024195 -162.768434 145.450599 70.282642 134.099116 -27.985318 19.261468 17.832970 33.922656 8.446008 -5.300425 0.346172 -0.413017 0.300551 62.880661 50.152902 -29.258371 135.417661 60.512200 73.163931 -30.903752 42.437214 -82.143557 -27.723870 20.807078 73.926278 -42.811304 -3.208725 10.862497 -0.391859 -0.355520 0.355433 0.396896 0.447689 -0.401995 94.465243 65.973671 119.300022 38.201313 32.452069 161.318086 -29.812150 -53.884362 79.038364 7.231141 16.875505 9.123816 7.032751 10.337042 -137.030068 -0.440718 0.366059 -0.438754 -0.415272 -0.467406 -0.350163 
3.298543 17.433393 -23.263878 85.419088 -31.465617 -29.636321 -96.509275 -47.806797 57.136828 19.455591 24.141193 -48.690322 -117.279920 64.739722 -68.236188 18.812209 11.964460 -13.870429 2.522190 -0.227091 -26.790920 34.726405 -8.412015 -115.420479 49.727299 -87.618313 -98.695586 123.818415 -34.008722 -107.217655 -20.017257 -1.591541 -27.999418 3.346148 -0.916957 -9.890264 -79.760120 80.217259 8.026985 -164.917597 76.793332 -165.911279 143.625560 70.173066 131.842217 -30.185118 17.660745 16.653599 30.448894 9.825799 -4.363898 0.486151 -0.210652 0.454284 62.692847 50.218705 -26.814110 135.351497 59.583017 76.846726 -26.457424 38.324739 -79.020239 -29.612932 20.029235 75.659203 -49.203846 -10.762935 3.676899 -0.365945 -0.397537 0.399785 0.436458 0.406399 -0.367800 96.161956 65.125800 122.466174 33.443502 40.217177 156.379603 -37.888696 -53.465771 87.416630 4.810126 23.194004 7.788135 5.517425 12.046055 -110.533520 -0.357458 0.365288 -0.230655 -0.246643 -0.313565 -0.464451 
3.169443 17.432779 -22.797258 88.198528 -33.319658 -31.297806 -94.997774 -47.899607 56.418839 21.703629 26.869382 -52.938197 -118.224594 66.374786 -73.919297 23.182582 9.011523 -18.908042 2.323731 -0.155626 -24.269133 34.267905 -8.862857 -116.013741 40.241325 -86.320975 -90.513935 123.502007 -35.643658 -112.409404 -26.728446 -5.264000 -24.495917 2.859039 -0.763226 -9.046468 -91.896998 79.646532 -0.325812 -158.616344 75.222725 -158.912919 145.132791 69.825494 132.763349 -25.594852 16.838738 17.591367 22.197942 10.038087 -4.336573 0.386836 -0.524435 0.344134 62.938143 51.097408 -24.838971 130.169279 58.635465 77.930962 -24.772162 35.209048 -79.734688 -32.869866 17.175330 69.221564 -48.297560 -19.635563 -7.436091 -0.501259 -0.365153 0.409439 0.298351 0.308442 -0.432207 98.179112 64.659925 124.872911 27.373467 45.968665 148.563801 -48.623781 -51.099890 98.394216 1.559189 29.569870 4.428853 9.720081 15.968863 -76.336573 -0.498802 0.353525 -0.436028 -0.504293 -0.415454 -0.359827 
3.054452 17.410545 -22.319574 89.545645 -33.403573 -32.569202 -93.469070 -47.774790 56.997259 22.103446 28.621854 -58.052733 -108.002994 69.996581 -69.784067 29.725534 5.724755 -15.939463 2.162083 -0.219539 -19.016419 34.910538 -9.726262 -116.543651 26.426687 -83.343155 -77.863310 123.140021 -36.213957 -116.791448 -26.926176 -7.657586 -21.511113 2.875237 -0.781816 -8.230704 -99.351080 78.738858 -6.690272 -162.320525 75.031440 -163.931574 148.254143 68.528936 135.763460 -24.585831 15.999533 17.534704 20.650960 13.544786 -1.932104 0.439978 -0.289787 0.407445 60.830042 52.028363 -24.827373 123.547457 59.325099 74.479583 -20.696457 36.139756 -78.111383 -34.319243 17.823217 66.045288 -46.395562 -22.036723 -18.929026 -0.391920 -0.404369 0.317231 0.416660 0.408470 -0.366895 95.472048 64.516331 121.793673 22.739105 52.181018 141.512686 -55.919028 -50.147278 105.554939 18.814085 39.681029 20.955633 20.887532 14.162181 -47.680413 -0.413580 0.494738 -0.356569 -0.414962 -0.395014 -0.495776 
2.956959 17.369724 -21.825113 91.469171 -33.432710 -33.922455 -92.975459 -48.259468 55.975515 22.959631 30.408448 -60.367874 -92.463317 72.853001 -62.629137 35.619165 7.599615 -13.982818 1.836067 -0.201230 -16.030974 35.145952 -11.533574 -117.315197 26.568816 -80.625518 -78.047533 121.106820 -38.739915 -120.422480 -21.415303 -5.837575 -21.391934 3.248086 -0.932545 -8.809290 -103.086700 76.999971 -7.829658 -163.346537 73.010502 -164.078754 150.919046 69.731112 138.856420 -19.106654 18.341162 18.583830 12.052572 10.164205 -3.809459 0.437053 -0.476432 0.336982 60.460008 54.805594 -21.513285 115.855651 59.784274 69.826295 -21.455169 39.245324 -81.108779 -36.061282 16.700327 61.981411 -47.945252 -25.333808 -23.732265 -0.517695 -0.350445 0.404939 0.357110 0.380167 -0.414248 95.107868 65.141993 120.462848 17.575962 57.163775 133.644263 -64.149207 -48.858871 113.481921 22.180926 48.065052 33.799386 34.504200 9.025243 -22.412925 -0.464853 0.337546 -0.446338 -0.445512 -0.432272 -0.317915 
